<svg width="336" height="623" viewBox="0 0 336 623" fill="none" xmlns="http://www.w3.org/2000/svg">
<g filter="url(#filter0_d_16_20208)">
<path fill-rule="evenodd" clip-rule="evenodd" d="M230.633 310.389C235.86 310.501 233.619 263.889 230.128 255.3C229.639 253.559 229.236 251.181 229.317 249.045C233.634 249.457 233.169 246.633 232.946 243.228C233.02 240.524 233.216 234.945 228.886 237.117C215.905 212.278 229.941 148.07 195.761 142.023C191.643 141.067 187.386 140.077 183.918 137.348C180.249 130.866 178.381 130.038 172.301 129.619C171.175 123.78 169.07 117.542 162.799 115.27C157.058 113.119 150.375 112.948 144.388 114.095C139.433 115.64 138.98 124.443 137.879 128.784C131.205 127.092 122.98 123.535 119.387 131.599C117.646 131.102 116.034 131.425 114.265 131.978C99.4436 134.261 85.0631 140.669 79.5657 154.04C76.1699 162.064 78.5799 170.799 79.8534 179.109C81.0411 188.158 77.9092 196.541 76.4573 205.245C74.2957 217.231 73.9047 226.845 75.3154 235.753C71.5867 236.564 71.3118 239.805 72.8203 243.197C73.2633 244.345 73.7095 245.555 74.689 246.204C76.6817 247.403 79.2571 246.021 81.4226 245.81C81.873 250.596 82.7453 255.292 84.1884 260.629C83.7704 262.227 83.2911 264.011 82.8607 265.616L82.7154 265.465C77.7714 285.257 63.0673 304.483 67.6374 325.518C67.9061 326.218 68.416 326.072 68.8076 326.06C71.0762 326.884 73.16 326.361 75.4477 326.445C80.8741 326.449 86.1167 327.113 90.9801 327.691C91.869 333.242 94.7593 342.329 99.9138 344.445C100.001 344.473 101.528 344.169 101.656 344.16C87.9344 397.336 63.2454 446.506 53.4384 500.754C53.3803 501.416 54.5074 501.065 54.8771 501.146C54.8265 502.651 55.8442 503.013 57.2692 503.548C55.4329 507.217 53.7787 510.882 51.9507 514.56C51.1031 516.381 49.7217 518.179 49.4699 520.125C47.4462 521.362 46.0832 523.778 46.1193 526.033C40.6621 528.238 42.1453 539.126 40.9003 544.519C39.6413 552.553 33.6532 558.164 29.5473 564.751C28.7105 566.073 27.8195 567.806 27.78 569.467C25.2346 570.607 24.2855 573.099 24.454 577.292C24.4449 582.198 25.8929 584.066 29.7972 584.185C40.4022 585.198 52.7774 584.785 63.4439 583.633C71.4233 582.664 78.4942 583.468 76.7101 574.305C76.343 572.086 77.0482 569.099 75.6745 567.304C74.8274 561.96 75.3202 556.573 77.1466 551.293C78.257 546.847 80.1329 537.664 79.3556 531.698C78.9961 528.938 73.1022 527.42 72.0647 527.286C72.3947 525.208 72.2495 521.579 71.0801 520.135C73.2274 519.849 73.7672 519.306 74.2144 517.027C75.2831 513.336 75.4253 509.327 78.0719 506.217C82.832 506.276 87.5762 505.121 92.3336 504.981L92.5704 504.458C95.3843 504.424 98.1824 503.949 100.853 503.017C101.445 503.285 102.203 503.515 102.536 502.658L104.125 497.91C122.619 441.659 143.12 385.272 163.109 329.433C164.275 326.718 165.679 323.833 167.503 321.414C168.121 355.579 175.61 389.708 176.253 423.857C177.122 447.35 176.898 470.595 179.211 494.171C179.806 499.161 180.438 498.995 181.218 498.689C181.53 498.735 182.265 498.885 182.584 498.949C182.062 503.907 181.463 511.956 179.238 517.027C174.32 517.752 175.201 521.359 176.292 524.348C175.118 525.306 175.285 527.538 175.633 528.773C171.007 528.778 169.998 532.375 170.316 534.645C170.756 538.441 170.51 544.348 173.16 547.59C174.721 551.724 177.261 555.626 178.254 560.079C178.877 563.356 178.637 568.13 179.238 571.38C177.725 572.048 178.366 573.096 178.111 575.122C176.801 584.397 181.411 582.821 189.563 583.459C194.45 584.491 231.648 586.543 230.041 580.371C230.315 577.858 229.092 576.755 228.568 574.281C228.333 573.624 223.699 566.024 220.934 563.147C211.663 554.822 212.068 543.645 212.362 530.77C211.817 527.281 209.008 523.939 205.424 524.315C206.453 520.588 204.546 517.348 200.56 516.27C200.958 512.051 201.378 506.317 202.835 502.667L201.462 501.331L203.3 501.541L203.91 500.073L204.575 501.682C207.73 501.682 211.289 501.013 214.311 500.699C214.793 500.725 214.578 500.098 214.657 499.856C217.511 499.292 217.823 497.842 217.319 494.389C217.984 438.323 217.695 382.784 216.787 326.614C221.246 326.804 225.595 325.249 229.978 324.213C231.535 325.147 231.976 321.822 231.794 321.104C231.547 317.387 231.066 313.763 230.633 310.389Z" fill="#694D3D"/>
<path fill-rule="evenodd" clip-rule="evenodd" d="M83.4984 259.694C84.4149 262.785 85.4403 267.365 86.5146 270.415C88.4457 278.868 89.8943 287.451 90.8425 296.056C91.16 298.933 91.4082 301.81 91.7725 304.673C91.4021 306.535 92.1632 311.827 91.7176 313.677C83.9959 315.046 73.208 320.884 67.0186 325.543C65.0275 309.908 74.164 292.397 78.0731 277.628C78.3325 276.679 78.591 275.721 78.8389 274.755C79.9562 271.752 82.1449 264.202 82.9201 261.182L83.0244 260.77L83.1696 260.921L83.4984 259.694ZM183.364 136.862C184.232 137.383 185.136 137.823 186.063 138.205C193.28 142.17 205.949 142.291 210.31 150.055C221.577 172.447 221.928 210.338 228.267 237.009C228.617 238.48 231.882 236.906 232.237 238.334C233.118 241.877 232.199 245.284 233.229 248.494C229.21 249.484 218.78 250.133 214.771 251.145C215.763 254.425 226.47 280.975 230.719 318.822C229.18 318.492 227.679 318.014 226.21 317.465L225.646 317.232C217.38 313.795 204.388 308.449 195.418 307.071C189.737 274.022 184.546 238.91 183.898 205.158L183.871 203.601C183.679 193.617 182.399 183.722 180.789 173.87L180.701 173.177C179.829 166.316 179.088 159.168 180.777 152.393C181.324 152.552 179.758 148.906 179.046 144.25C178.605 141.366 179.827 138.032 178.053 135.163C175.59 131.179 172.239 136.273 172.496 135.163C172.626 134.605 169.243 127.825 170.511 128.538C171.896 129.315 177.061 129.295 179.046 131.188C183.383 135.324 184.173 138.471 183.431 136.995L183.364 136.862ZM109.59 133.681C111.395 133.345 116.631 131.659 118.511 131.756C117.41 134.005 120.099 123.994 128.634 126.266C129.007 126.365 137.8 127.646 137.763 129.295C137.739 130.4 128.067 131.707 127.244 133.081C126.278 134.695 127.923 139.55 127.244 141.221C125.205 146.24 126.169 147.628 126.783 147.092C127.27 147.811 127.338 148.833 127.436 149.787L127.547 150.821C129.34 167.138 133.059 183.208 134.414 199.574C136.373 217.886 132.137 235.963 130.773 254.152C129.659 270.539 131.166 288.097 130.558 304.482C130.475 305.391 130.179 306.623 129.579 307.424L129.52 307.5L129.514 307.502L129.276 307.547C124.924 308.387 118.431 311.002 113.953 310.979C109.775 303.222 105.247 283.385 106.603 269.948C107.611 259.958 108.985 247.042 108.985 244.581C108.985 240.13 81.9924 247.042 74.0534 246.095C71.4413 245.784 71.3174 242.939 71.0291 238.308C70.9469 236.988 74.0148 236.392 74.0534 234.926C74.3329 224.311 74.3047 210.122 74.4377 209.288C75.5638 200.978 78.4539 192.91 78.8436 184.516C78.9734 176.042 75.2801 167.764 76.7717 159.268C78.9416 146.893 90.4978 138.305 102.476 135.16C104.816 134.478 107.197 134.126 109.59 133.681Z" fill="#F08080"/>
<path fill-rule="evenodd" clip-rule="evenodd" d="M125.985 145.249L126.02 145.507L126.053 145.764C127.01 153.147 133.027 196.459 133.729 203.867C135.131 218.635 131.531 235.237 131.412 250.071C131.381 253.907 132.355 281.563 131.508 283.271C131.255 283.782 127.778 289.566 134.389 287.932C149.323 284.239 183.175 270.51 190.573 270.337C189.464 270.168 188.835 269.317 188.688 268.232C188.549 267.196 185.911 243.604 184.819 219.041C183.616 191.997 179.188 144.844 179.046 144.25C176.276 145.645 172.496 163.748 161.58 163.748C150.664 163.748 136.374 151.254 128.237 138.76C126.562 136.189 126.604 145.527 125.985 145.249Z" fill="#8FA7DF"/>
<path fill-rule="evenodd" clip-rule="evenodd" d="M202.457 518.12L202.627 518.208L202.669 518.233C203.547 518.762 204.14 519.685 204.971 521.423L205.435 522.418L206.229 522.624C209.29 523.415 211.57 525.325 213.632 529.785L213.694 529.921L213.757 530.06C214.45 531.6 214.713 533.304 214.65 535.313L214.644 535.464L214.635 535.678C214.579 536.878 214.455 537.867 214.117 539.963L213.87 541.468L213.799 541.907C213.374 544.573 213.225 546.068 213.267 547.752C213.3 549.074 213.477 550.286 213.82 551.431C215.218 556.086 217.957 560.939 221.486 565.601C222.706 567.213 228.255 576.201 228.303 576.389L228.4 576.768L228.492 577.135C228.507 577.195 228.522 577.255 228.536 577.314L228.651 577.784L228.721 578.082C228.962 579.11 229.14 579.988 229.249 580.723L229.264 580.823C229.461 582.205 229.453 583.023 228.965 583.684L228.933 583.727L228.853 583.83L228.754 583.918L228.694 583.97L228.632 584.02L228.448 584.166L228.225 584.249C227.441 584.541 224.717 585.278 221.855 585.856C217.213 586.794 212.386 587.344 207.617 587.316C206.219 587.308 204.764 587.258 203.257 587.169C199.186 586.928 194.881 586.417 190.325 585.694L189.532 585.566L188.696 585.425C185.734 584.92 181.477 584.125 180.711 583.992L180.638 583.979L180.608 583.979C178.852 583.926 177.724 582.801 177.298 581.097L177.279 581.021L177.263 580.947C176.979 579.668 177.049 578.038 177.391 576.211C177.677 574.685 178.359 566.071 178.359 566.071L175.802 557.94C175.802 557.94 170.402 534.537 171.254 531.399L171.273 531.331C171.387 530.943 176.209 528.171 176.466 527.591C176.726 527.001 176.104 520.211 176.365 519.516L176.39 519.452L176.414 519.395L176.425 519.371C176.693 518.796 179.238 516.369 186.191 516.043C188.827 515.919 193.972 515.559 197.305 516.043C200.41 516.494 201.776 517.775 202.457 518.12ZM67.754 522.467L68.0961 522.542L68.1678 522.504C68.7714 522.186 69.2921 522.016 69.9501 522.047C70.8286 522.088 71.61 522.527 72.2501 523.31C72.6274 523.771 72.4573 527.553 72.4533 527.735L72.4525 527.782L72.4523 527.867L72.4526 527.892L72.4696 527.904C72.7285 528.07 73.2843 528.175 74.3839 528.234L74.6341 528.247L75.1567 528.269C76.0601 528.31 76.5244 528.352 77.0597 528.461L77.1154 528.472C78.0974 528.677 78.8782 529.075 79.4209 529.779C80.2884 530.905 80.4543 532.482 80.2037 534.497C80.1164 535.199 74.3153 555.943 73.9056 557.722C73.2855 560.415 74.4731 574.684 74.6025 576.01C74.7582 577.604 74.7859 579.041 74.6536 580.195C74.464 581.848 73.9732 583.006 72.826 583.524L72.7639 583.552L72.6303 583.608L72.2693 583.685L72.0417 583.733C69.6933 584.212 67.4466 584.459 63.6997 584.722L60.84 584.917L60.2134 584.962C59.3455 585.025 58.6861 585.079 58.0219 585.143L57.4347 585.202L57.4123 585.203C47.5346 585.934 35.5071 586.006 26.831 585.288L26.3218 585.245L25.9418 585.233C24.5573 585.182 23.6958 584.291 23.2429 582.956L23.2198 582.887L23.1974 582.816C22.9439 582.002 22.8201 581.039 22.7575 579.74L22.7357 579.212C22.732 579.105 22.7286 578.997 22.7251 578.869L22.6903 577.52L22.6805 577.224C22.6737 577.044 22.6664 576.895 22.6577 576.757L22.6467 576.598L22.6069 576.356C22.3397 574.693 38.3392 554.53 39.2132 552.285C40.2785 549.549 42.004 528.43 42.7483 527.588L42.7726 527.561L45.0365 525.12L45.3663 528.338L45.3687 528.334C45.4226 528.224 45.4629 528.116 45.4868 528.018L45.4974 527.97L45.5051 527.924L45.5082 527.902L45.5121 527.88C45.9122 525.585 47.18 523.85 49.1635 522.716C50.8297 521.763 52.9448 521.258 55.4473 521.118C59.088 520.914 63.1295 521.448 67.754 522.467Z" fill="white"/>
<path fill-rule="evenodd" clip-rule="evenodd" d="M139.047 120.965C139.71 121.466 139.64 122.852 139.706 123.628L139.71 123.679C139.919 126.023 139.636 128.379 139.038 130.655L138.946 131.002C138.66 132.09 138.376 133.394 137.482 134.14C136.466 134.987 134.853 134.439 134.816 133.072C134.798 132.437 135.02 131.826 135.3 131.23C133.333 131.955 131.365 132.673 129.389 133.373C128.127 143.348 142.708 155.56 151.15 159.836C163.443 166.339 173.787 156.378 175.361 144.668C175.625 143.112 175.803 141.514 175.837 139.937L175.839 139.786C175.846 138.482 175.62 136.738 176.509 135.654C175.854 135.639 175.273 135.727 174.633 135.823L174.663 135.874C175.026 136.494 175.539 138.038 174.39 138.155C171.909 137.906 170.754 133.748 170.15 131.755L170.126 131.668C169.735 130.174 169.238 124.75 170.414 124.1C170.776 125.438 170.634 126.891 171.074 128.233C172.075 128.618 173.981 128.723 174.423 128.794C179.579 128.851 182.503 132.388 184.593 136.529C190.72 141.335 199.527 140.509 206.143 144.467C226.388 158.492 219.776 213.09 229.86 236.318C231.879 235.519 233.937 237.118 234.207 239.069C234.486 240.569 234.402 242.175 234.425 243.695L234.434 243.885C234.599 246.994 235.162 250.488 230.768 250.556C230.775 252.291 231.117 253.972 231.555 255.647C233.988 265.788 235.05 276.233 235.29 286.629L235.302 287.393C235.381 292.857 235.451 309.761 232.164 311.761L232.317 312.951C232.698 315.929 233.056 318.915 233.256 321.907C233.572 323.461 232.498 327.183 230.308 326.198C226.291 327.147 222.33 328.548 218.156 328.555C219.167 360.708 218.664 392.894 218.814 425.06C218.492 448.771 219.833 472.677 218.661 496.297L218.703 496.63C219.034 499.283 219.134 501.589 215.926 502.497C215.88 503.146 215.357 503.493 214.738 503.569C212.979 503.795 211.221 504.009 209.461 504.216C207.821 504.332 206.067 504.722 204.433 504.536C204.591 504.689 204.162 504.712 204.115 504.601C202.625 508.174 202.193 512.069 201.824 515.88C205.44 517.197 207.414 520.16 206.824 523.875C210.473 524.016 213.137 527.891 213.649 531.157C213.976 533.41 213.714 535.648 213.608 537.905C213.103 545.619 214.29 553.93 219.501 560.084C222.884 563.946 227.288 567.44 228.764 572.47C229.165 572.649 229.494 572.995 229.639 573.535L230.575 577.047V577.047L231.041 578.803C231.382 580.083 231.685 581.393 231.502 582.718L231.483 582.847C230.57 591.241 194.56 587.195 187.531 586.592C184.706 586.169 181.606 586.399 179.062 584.97C175.942 583.002 175.552 579.009 176.087 575.74L176.132 575.433C176.349 573.971 176.666 572.438 178.118 571.62C177.629 568.59 177.818 565.49 177.237 562.473C176.359 558.202 173.703 554.497 172.347 550.397C170.369 548.296 170.303 545.019 169.889 542.331C169.576 539.724 169.319 537.099 169.214 534.476C168.927 531.008 170.501 528.149 174.317 527.696C174.14 527.039 174.625 526.471 175.107 526.05C173.969 522.189 173.655 516.889 178.59 515.571C180.459 511.142 181.003 506.342 181.5 501.618C181.441 501.606 181.382 501.596 181.323 501.587C179.062 502.486 178.448 498.635 178.236 496.601L178.189 496.116C175.862 472.606 176.076 448.957 175.202 425.375L175.117 423.67C174.351 408.131 173.895 392.457 171.083 377.126C168.253 360.039 167.513 342.674 166.546 325.407C165.407 327.099 164.794 329.042 163.872 330.844C151.908 364.436 139.632 397.926 127.804 431.563C119.231 455.916 111.041 480.399 102.826 504.866C102.407 506.119 101.086 506.379 100.12 505.977C97.6594 506.793 95.0774 507.256 92.4789 507.336C92.3224 507.68 92.0009 507.932 91.5306 507.883C90.1408 507.737 88.5416 508.152 87.1518 508.308C83.9717 508.608 80.8844 509.074 77.6753 509.118C75.6872 511.52 75.5623 514.777 74.6456 517.636C74.1179 519.093 74.2007 522.362 72.3785 522.772C73.0317 523.734 73.1172 524.888 73.0114 526.077C73.5781 526.201 74.1529 526.433 74.6861 526.671C75.2054 526.923 75.8913 526.901 76.249 527.407C86.4268 529.17 78.989 547.639 77.2199 553.748C75.4835 558.742 74.9398 563.958 75.7322 569.172C76.9433 570.771 76.5378 573.149 76.7232 575.044C76.8206 576.735 76.9997 578.451 76.9836 580.144C76.7858 587.177 67.7004 586.033 62.5746 586.946C59.3739 587.302 56.1587 587.55 52.9436 587.742C44.7895 588.227 36.5896 588.264 28.4522 587.51C23.1982 587.351 22.0684 584.076 22.0768 579.595L22.0688 579.41C21.9504 576.369 22.4634 572.698 25.4852 571.117C25.6357 569.51 26.4886 567.888 27.3593 566.484C31.4082 559.978 37.4874 554.277 38.6831 546.47C39.856 541.359 38.5272 530.109 43.9637 527.444C44.0899 525.143 45.569 522.797 47.4006 521.553C47.7541 519.636 49.0857 517.874 49.9096 516.112C51.59 512.749 53.1444 509.332 54.8159 505.966C53.9407 505.612 53.0107 504.961 52.8886 504.037C52.0484 504.046 51.2182 503.527 51.32 502.55C51.6167 499.713 52.2662 496.923 52.8795 494.135L52.956 493.786C63.8698 443.368 86.4071 396.223 99.5928 346.451C97.8186 346.758 96.1599 344.819 95.1791 343.557C92.0109 339.48 90.1396 334.547 89.3167 329.542L87.8275 329.366C82.8611 328.783 77.87 328.273 72.862 328.41L71.655 328.449C70.3142 328.488 68.971 328.478 67.6963 328.017C66.8071 328.095 65.8812 327.639 65.6615 326.685C61.9523 309.019 71.0695 292.253 77.6 276.29C79.1383 272.365 80.2333 268.383 81.2772 264.318C81.3116 264.187 81.5273 264.214 81.5214 264.35C81.3179 268.869 80.1456 273.425 78.955 277.78C75.0458 292.548 66.9017 307.031 68.8928 322.666C75.0822 318.007 82.4334 314.772 90.1551 313.403C90.6007 311.552 91.0931 309.716 91.4635 307.854C91.0992 304.991 90.851 302.114 90.5336 299.237C89.5853 290.632 88.1367 282.049 86.2056 273.596C83.2099 265.09 80.5945 256.469 79.6593 247.5L79.489 247.532C77.4121 247.935 75.1237 248.81 73.1967 247.545C71.9738 246.735 71.4445 245.392 70.9505 244.102C69.5389 240.975 69.2778 236.864 73.2718 235.557C71.7829 225.613 72.7503 215.233 74.5499 205.383C75.9908 196.749 79.152 188.242 77.9687 179.403C76.655 170.91 74.2054 162.014 77.7465 153.7C83.5662 139.824 98.3035 133.24 112.797 131.122L113.032 131.056C114.825 130.548 116.458 130.014 118.326 130.398C122.732 122.584 129.879 125.762 136.857 127.504C137.328 126.178 137.721 124.823 138.09 123.468C138.32 122.778 138.244 121.186 139.047 120.965ZM179.439 575.411L179.421 575.752C179.236 579.411 179.444 582.546 184.19 582.522C187.456 582.855 190.723 583.179 193.994 583.462L195.221 583.566C204.93 584.393 214.756 584.798 224.447 583.556L224.851 583.503C225.661 583.393 227.16 583.414 227.801 582.842C228.574 581.848 227.68 579.953 227.492 578.799C212.371 578.631 197.231 578.098 182.1 578.282C180.509 578.29 179.791 576.99 179.937 575.807C179.758 575.691 179.589 575.557 179.439 575.411ZM25.9188 573.577C25.1753 576.075 25.3584 578.437 25.7784 580.939C25.9884 583.559 27.2925 583.726 29.6526 583.788C38.8658 584.6 48.1456 584.43 57.3613 583.749C62.3007 583.24 67.3764 583.259 72.2239 582.215C74.5365 581.235 73.2014 578.155 73.2802 576.267C62.3937 582.972 45.9294 582.121 34.058 578.241L33.8678 578.164C31.0597 577.036 27.4699 576.326 25.9188 573.577ZM43.9515 528.463C42.7 529.812 42.6739 533.655 42.6214 534.963L42.6148 535.109C42.4742 537.856 42.4966 540.609 42.3721 543.356C42.4638 554.924 35.4743 560.693 30.2836 569.994C28.8639 572.251 30.9292 572.571 32.6092 573.303C43.4878 578.142 56.3556 578.882 67.7205 575.177C73.4332 573.59 72.186 569.916 71.7009 565.422C71.2233 556.238 76.2796 547.965 77.7752 539.081L77.8155 538.851C78.2614 536.243 79.032 529.558 74.684 530.987C73.738 531.544 72.8486 530.846 72.7369 529.992C72.6241 530.01 72.5086 530.02 72.397 530.022C71.8942 532.991 71.3733 535.956 70.8729 538.926C71.294 539.181 71.6887 539.47 72.0387 539.801C72.464 540.204 72.1669 541.049 71.5259 540.998C71.1965 540.971 70.8709 540.923 70.5472 540.864C70.2906 543.445 66.0015 541.997 67.2405 539.928C61.0737 537.892 54.2797 538.054 48.0172 539.616L47.9913 539.626C47.5065 539.81 44.0204 540.479 45.1419 540.998C45.6093 541.052 44.5451 541.636 44.3585 540.733C44.2983 539.598 47.0079 539.041 47.8381 538.57C45.7442 535.706 44.3135 531.993 43.9515 528.463ZM201.938 519.394C196.129 516.387 188.989 517.503 182.689 518.035L182.424 518.064C180.82 518.229 178.585 518.33 177.849 519.909C176.783 522.438 178.55 528.096 179.105 530.909L179.294 531.647C179.754 533.447 180.191 535.233 180.348 537.095C180.352 537.154 180.293 537.195 180.238 537.195C178.031 534.941 177.039 531.91 176.008 529.019C175.568 529.259 175.139 529.519 174.734 529.804C173.152 534.999 172.623 540.531 173.875 545.831L173.92 546.018C175.467 552.568 180.285 557.925 180.743 564.769C181.049 567.537 180.98 570.372 181.813 573.06C182.287 573.159 182.7 573.493 182.886 573.913L185.602 573.916C198.728 573.938 211.858 574.051 224.977 574.568C224.554 571.042 221.298 567.914 219.005 565.497C211.968 558.609 208.924 548.715 210.084 539.179C210.694 534.409 213.479 526.914 206.665 525.151C206.168 529.039 205.495 532.914 205.123 536.818C206.409 537.411 206.329 538.974 204.758 538.943C204.053 541.211 201.689 540.294 201.944 538.155C193.297 535.102 188.335 534.079 179.911 538.678C179.675 538.645 180.558 537.741 180.67 537.58C183.332 534.837 187.421 533.547 191.257 533.5C195.06 533.5 198.636 534.87 202.223 535.929C202.762 532.246 203.125 528.54 203.553 524.844L203.646 524.052C203.869 522.111 203.788 520.509 201.938 519.394ZM62.9653 566.958C64.231 566.689 65.3951 566.28 66.6809 566.557C71.2065 569.806 52.7151 570.722 51.1407 570.491C47.1327 570.379 43.1229 569.892 39.2655 568.81L38.9967 568.734C38.6168 568.632 34.7719 567.609 35.501 567.152C40.7182 567.594 45.8259 568.51 51.1407 568.271C53.7921 568.218 56.4537 568.039 59.0767 567.658C60.381 567.467 61.6793 567.235 62.9653 566.958ZM185.22 562.933C184.391 561.746 188.43 563.322 188.956 563.336C192.301 564.124 195.704 564.722 199.14 564.97C201.444 565.137 203.772 565.172 206.079 565.064C207.788 565.008 209.478 564.766 211.176 564.6L211.237 564.597C212.246 564.564 214.268 565.162 213.022 566.309C211.084 567.745 208.218 567.308 205.896 567.519C198.844 567.497 191.377 566.411 185.22 562.933ZM52.6467 554.306C54.6796 553.954 65.8695 553.84 64.7539 557.122C64.4833 557.746 63.8647 557.952 63.2136 557.854C56.2883 556.244 48.8179 555.402 41.9147 557.622C41.8028 557.659 41.7254 557.484 41.8353 557.437C45.2295 555.811 48.8613 554.675 52.6467 554.306ZM197.891 551.097C199.718 550.965 201.556 551.011 203.383 551.143L204.132 551.199C204.903 551.258 205.691 551.334 206.427 551.548L206.574 551.593C207.577 551.902 209.839 553.551 208.122 554.344C206.279 554.914 204.72 554.236 202.941 553.799C197.984 552.676 192.773 553.056 187.861 554.204L188.553 554.417V554.417C188.595 554.387 188.651 554.456 188.61 554.489C188.113 554.904 187.432 554.757 187.08 554.242C187.018 554.153 187.057 554.011 187.155 553.962C190.484 552.293 194.155 551.369 197.891 551.097ZM43.4876 550.678C49.0864 548.31 55.5731 548.048 61.5773 548.735L62.0051 548.785C63.8783 548.995 66.3215 549.091 67.3932 550.759C67.7635 551.337 67.381 552 66.7827 552.208C65.0207 552.824 62.949 551.591 61.2562 551.133C56.2501 549.823 50.9039 549.685 45.8135 550.59C45.8491 550.77 45.0061 550.691 44.8225 550.755C44.5924 550.743 43.0654 551.226 43.4876 550.678ZM184.674 546.98C189.559 544.709 195.206 544.168 200.479 545.34L200.698 545.4C203.035 546.027 206.797 546.767 207.634 549.131C207.815 549.664 207.422 550.384 206.834 550.492C204.842 550.855 203.033 549.465 201.23 548.797C195.926 546.891 189.921 546.435 184.436 547.837C184.4 548.044 184.363 548.248 184.324 548.455C184.418 548.396 184.516 548.527 184.44 548.6C183.565 549.186 182.654 547.707 184.674 546.98ZM56.0732 542.988C60.0252 542.737 64.0105 543.217 67.8258 544.214L68.5432 544.403C69.586 544.682 70.9367 545.122 71.0884 546.199C71.1475 546.628 71.0355 546.923 70.6713 547.188C69.3431 548.138 66.4545 546.148 64.803 545.914C58.8076 544.192 52.3722 544.217 46.2991 545.534L46.0922 545.58L46.2387 546.577C46.3826 547.053 45.0479 545.93 45.555 545.418C48.7609 543.858 52.5018 543.269 56.0732 542.988ZM188.4 541.207C191.572 540.659 194.844 540.555 198.051 540.831L198.43 540.864C200.345 541.026 206.55 541.262 205.082 544.357C204.836 544.874 204.122 544.941 203.66 544.716C202.109 543.965 200.414 543.694 198.703 543.446C192.66 542.643 186.487 542.972 180.588 544.528C180.717 544.72 180.452 544.949 180.202 544.994C179.579 545.104 179.579 544.394 179.846 544.016C180.163 543.57 180.796 543.407 181.284 543.21C183.556 542.264 185.965 541.624 188.4 541.207ZM68.2681 523.987L67.9069 523.905C61.8539 522.544 48.4343 520.102 47.0445 528.073C46.5513 531.584 48.1783 535.008 48.0581 538.485C54.3346 536.045 61.2753 536.07 67.7962 537.683C68.3739 534.075 68.9254 530.462 69.5155 526.856L69.6109 526.425C69.8736 525.208 69.9628 524.257 68.2681 523.987ZM54.7871 525.438C56.1061 524.357 58.3058 524.372 59.5996 525.552C60.7829 525.79 61.6174 526.991 61.6365 528.02C63.4355 531.043 61.2661 535.22 57.8315 535.974C50.0758 537.537 46.6088 527.352 54.7871 525.438ZM189.157 520.615C195.646 519.507 198.004 527.377 192.678 530.569C185.154 534.177 180.141 522.833 189.157 520.615ZM57.9982 503.134C58.0938 503.736 57.7841 504.164 57.4142 504.569C56.0838 509.783 54.0815 514.636 52.1073 519.634C58.5299 518.616 64.598 519.504 70.2808 521.171C70.3488 519.646 71.0758 518.065 71.5809 516.627C72.5642 513.897 73.7532 511.237 75.1244 508.668L75.2967 508.347C75.7892 507.432 76.2633 506.477 76.8451 505.602C70.5592 504.781 64.2733 504.042 57.9982 503.134ZM184.595 502.023L184.428 502.749C183.706 505.896 183.021 509.072 181.948 512.13L181.933 512.193C181.769 512.965 181.399 516.538 181.166 514.016C180.987 514.395 180.796 514.771 180.592 515.141L182.149 514.963C187.954 514.312 194.01 513.792 199.704 515.186C199.113 510.81 199.983 506.629 201.252 502.491C195.688 502.369 190.172 502.408 184.595 502.023ZM79.2116 507.462C79.0081 507.645 78.8089 507.832 78.6194 508.026C78.876 507.963 79.1324 507.902 79.3703 507.849C79.3606 507.706 79.2543 507.598 79.2116 507.462ZM204.616 503.449L204.435 503.856V503.856C204.529 503.803 204.632 503.752 204.744 503.706C204.693 503.628 204.651 503.543 204.616 503.449ZM54.5595 502.556C54.4937 502.789 54.4435 503.046 54.3253 503.258C54.4189 503.274 54.5145 503.291 54.6103 503.311C54.7261 503.087 54.8484 502.869 54.9805 502.654C54.8401 502.623 54.6997 502.591 54.5595 502.556ZM102.962 244.498C102.393 244.761 101.799 244.828 101.013 244.859C94.6314 245.113 88.27 245.819 82.0034 247.024C82.3494 251.871 83.8918 256.567 85.3595 261.188L85.6639 262.201C90.6233 278.758 94.9522 296.059 94.0803 313.377C94.1292 313.395 94.176 313.418 94.2209 313.44C94.1416 313.652 94.0848 313.87 94.0051 314.08L93.9542 314.205L93.6564 314.912C93.4919 315.305 93.332 315.699 93.1931 316.102C92.9496 316.186 92.6502 316.248 92.3649 316.287C90.9171 325.456 92.2937 335.736 98.8177 342.906C96.4919 338.43 95.6807 333.345 95.7831 328.372L95.8014 327.612C95.8281 326.673 95.8869 325.737 96.1864 324.845C96.1986 324.798 96.2637 324.805 96.2802 324.845C97.6615 328.923 97.7514 333.354 99.1085 337.463L99.2123 337.778C100.286 340.998 102.078 345.143 105.191 346.807C105.764 346.97 106.645 346.777 106.943 347.409L106.963 347.454L106.981 347.448C105.592 343.096 104.697 338.596 104.391 334.052L104.371 333.743C104.273 332.158 104.057 330.459 104.471 328.911C105.258 330.326 105.062 332.638 105.429 334.35L105.443 334.448C105.733 336.298 108.519 350.443 110.349 348.553C110.727 348.032 110.629 347.024 110.641 346.404L110.642 346.343C110.671 345.446 110.66 344.55 110.628 343.653C110.43 338.371 109.572 332.95 111.255 327.804C111.536 326.937 113.062 326.774 113.247 327.804C113.988 331.926 114.695 336.051 115.404 340.176C115.92 342.696 115.898 345.538 117.467 347.712C117.485 342.967 117.21 338.236 116.972 333.497L116.909 333.299C116.721 332.701 116.535 331.925 116.966 331.416C117.139 330.335 118.792 330.459 118.932 331.591C118.963 331.827 118.985 332.067 119.009 332.305C119.557 332.962 120.066 333.632 120.713 334.197C125.033 325.761 110.897 311.192 108.945 301.665C103.197 283.114 106.502 263.663 108.174 244.771C106.445 244.575 104.702 244.523 102.962 244.498ZM185.224 137.727C188.246 143.527 190.464 149.666 192 155.984C192.473 157.935 189.738 159.132 188.633 157.423L188.6 157.37C187.241 155.202 185.215 153.292 182.652 152.545C180.905 159.549 181.756 166.95 182.664 174.022C184.273 183.874 185.553 193.768 185.745 203.753L185.754 204.287C186.315 238.383 191.554 272.326 197.293 305.708C206.466 307.118 214.864 311.093 223.32 314.588C224.79 315.137 226.291 315.615 227.83 315.945C223.581 278.098 207.423 242.604 202.431 204.895C201.111 195.088 201.049 185.129 202.872 175.378C202.903 175.192 203.179 175.254 203.192 175.42C203.392 179.425 204.108 183.378 204.533 187.361C204.822 185.086 205.489 182.782 206.028 180.601C206.687 178.468 206.931 175.043 208.863 173.652L208.985 173.249V173.249C209.036 173.076 209.304 173.149 209.262 173.322C209.241 173.404 209.221 173.485 209.203 173.567C210.443 173.883 209.284 175.29 208.977 175.964C206.985 181.075 206.393 186.608 205.033 191.876C207 208.322 210.543 224.559 214.906 240.543C218.915 239.531 222.938 238.557 226.957 237.568C217.992 209.613 223.234 178.415 209.803 151.721C204.77 142.763 192.378 143.98 185.224 137.727ZM117.113 132.616C115.233 132.52 113.269 133.497 111.464 133.833C109.071 134.278 106.69 134.63 104.35 135.312C92.3721 138.457 80.8159 147.045 78.6459 159.419C77.1544 167.916 80.8476 176.194 80.7178 184.667C80.3281 193.062 77.438 201.13 76.3119 209.44C74.9573 217.937 74.4909 226.831 75.6528 235.37C86.3979 232.45 97.6196 232.268 108.638 233.775C107.719 220.833 108.925 207.827 109.592 194.894C110.072 186.589 110.894 178.245 110.604 169.924C110.597 169.739 110.911 169.694 110.941 169.878C114.245 186.875 112.307 204.128 111.973 221.269C111.761 225.6 112.321 229.972 112.095 234.279C117.104 235.311 116.923 240.906 115.391 244.594C115.12 245.481 114.198 245.327 113.452 245.219C112.644 246.033 110.716 244.971 109.616 244.972C108.756 266.248 103.53 288.973 114.24 308.859C118.717 308.882 123.028 307.403 127.379 306.564L127.617 306.518L127.623 306.516C128.263 305.719 128.575 304.437 128.661 303.498C129.269 287.113 127.366 270.691 128.479 254.304C129.843 236.115 134.079 218.038 132.12 199.726C130.765 183.36 127.046 167.29 125.254 150.973L125.163 150.128C125.051 149.122 125.009 148.011 124.489 147.244C121.465 149.883 118.928 153.021 117.111 156.552C116.105 158.258 113.41 157.499 113.369 155.573C112.982 152.135 112.924 148.684 113.317 145.245L113.352 144.941C113.839 140.636 115.197 136.527 117.113 132.616ZM229.537 250.698C225.642 250.895 221.742 251.309 217.841 251.26L218.234 252.672C222.957 269.611 227.986 286.52 230.951 303.852L231.059 302.227C231.166 300.601 231.269 298.975 231.336 297.345C232.177 281.769 230.892 266.213 229.537 250.698ZM128.146 142.589C128.162 143.293 128.199 143.995 128.256 144.695C130.056 147.282 129.896 150.72 130.299 153.695C132.558 169.764 135.885 185.767 137.006 202.003C138.049 214.991 136.346 227.933 134.605 240.791C132.458 255.516 132.683 270.394 133.182 285.219C141.43 278.067 153.154 276.812 163.561 274.591L164.056 274.494C172.058 272.924 180.043 270.649 186.842 266.179C181.952 232.676 183.103 198.742 178.104 165.269C177.95 162.633 177.918 159.983 178.147 157.349C177.927 154.497 177.861 151.631 177.856 148.772C175.665 157.217 168.325 165.377 158.707 165.11C148.474 164.535 139.789 156.507 133.117 149.625C131.308 147.572 129.509 145.175 128.146 142.589ZM218.142 250.713L217.68 250.692L217.708 250.788V250.788C217.803 250.77 217.9 250.753 217.997 250.737L218.142 250.713ZM230.835 239.273C230.762 239.251 230.638 239.251 230.499 239.257C230.3 239.698 229.897 240.062 229.429 240.182L225.525 241.192C222.271 242.034 219.015 242.872 215.755 243.688C216.302 245.709 216.858 247.73 217.419 249.75C221.865 248.374 226.788 248.686 231.322 247.801C231.266 245.468 231.133 243.123 231.092 240.785C231.081 240.404 231.163 239.79 230.959 239.448C230.831 239.23 230.959 239.31 230.835 239.273ZM81.4807 247.127L81.3584 247.152V247.152C81.3991 247.258 81.4359 247.365 81.4705 247.473C81.4725 247.357 81.4744 247.243 81.4807 247.127ZM110.427 235.899C102.05 234.728 93.5307 234.036 85.0822 234.833C81.2607 235.33 77.3814 235.86 73.6363 236.538C72.3338 238.459 73.7747 243.133 75.3962 244.612C75.8826 244.789 76.7189 244.445 77.1849 244.344C80.6814 243.586 84.2119 242.975 87.7603 242.498C87.8659 242.626 88.0205 242.708 88.2118 242.691L89.027 242.618C93.9209 242.19 98.858 241.876 103.762 242.144L103.799 242.171V242.171C107.108 242.403 110.405 242.904 113.7 243.267C115.001 239.999 114.777 236.249 110.427 235.899ZM171.377 129.317C171.7 130.37 172.089 131.393 172.573 132.388C173.078 132.254 173.775 132.361 174.146 132.667L174.304 132.64C174.738 132.561 175.26 132.439 175.396 132.425C181.381 131.629 180.925 139.324 180.946 143.191C180.983 145.13 181.024 147.071 181.085 149.01C182.798 148.449 185.088 149.457 186.585 150.349C185.413 146.599 184.035 142.91 182.499 139.286L182.208 138.58C180.998 135.656 179.658 132.696 177.086 130.66C175.131 130.168 173.237 130.079 171.377 129.317ZM127.981 127.386C122.418 125.479 120.214 129.812 118.672 134.134C116.852 138.92 116.356 144.19 116.659 149.34L116.846 149.102C118.893 146.48 121.844 142.151 125.576 142.847C125.539 140.857 125.614 138.672 126.011 136.606C125.78 135.273 125.72 133.926 125.881 132.579C125.966 130.89 127.881 131.146 129.141 130.907C130.232 130.209 131.552 129.928 132.879 130.42C133.88 130.292 134.881 130.17 135.882 130.048C136.036 129.724 136.16 129.398 136.289 129.065C133.519 128.514 130.749 127.947 127.981 127.386Z" fill="black"/>
<path fill-rule="evenodd" clip-rule="evenodd" d="M190.004 81.7918C189.269 76.1844 186.96 70.2309 184.531 65.0032C179.07 53.9505 166.567 52.4288 155.359 50.1499C144.299 48.6109 132.587 47.2212 121.693 50.2919C115.569 51.7259 113.177 58.6972 114.144 64.1986C114.696 67.6267 116.328 70.8712 117.72 74.0483C120.487 80.5728 122.243 87.558 122.246 94.622C122.056 99.2384 121.374 104.508 126.924 106.463C132.206 108.973 132.652 115.778 139.265 119.639C141.94 124.817 149.224 125.272 154.467 126.473C157.78 127.079 161.131 127.526 164.491 127.814C174.221 129.005 182.005 126.311 187.098 118.026C190.506 112.985 193.044 107.163 192.417 101.053C191.793 94.6183 190.752 88.2175 190.004 81.7918Z" fill="#694D3D"/>
<path fill-rule="evenodd" clip-rule="evenodd" d="M155.443 36.7172C155.998 36.1156 156.854 36.322 157.373 36.7977C157.711 36.8929 158.039 37.0345 158.348 37.2219C159.047 37.1362 159.78 37.1362 160.466 37.1602C160.632 37.071 160.811 36.9917 161.005 36.9236C162.391 36.4391 163.619 36.6852 164.631 37.3338C165.119 36.8927 165.735 36.616 166.521 36.6578C167.223 36.6953 167.724 37.011 168.152 37.4269C168.58 36.8376 169.271 36.4172 170.132 36.3587C171.336 36.2769 172.493 36.7382 173.452 37.4525C174.011 36.8399 174.772 36.4878 175.621 36.4844C176.18 36.3875 176.769 36.4257 177.302 36.5794C178.075 36.8026 178.754 37.2208 179.295 37.7635C180.15 36.9806 181.197 36.4172 182.404 36.4993C183.967 36.6072 185.262 37.7054 185.864 39.057C186.922 39.462 187.899 40.0395 188.714 40.863C188.758 40.9063 188.8 40.9518 188.843 40.9974C189.283 41.1524 189.697 41.3722 190.061 41.6617C191.216 42.58 191.473 43.9089 191.091 45.2111C191.145 45.4195 191.19 45.6316 191.232 45.8434C192.313 46.0005 193.296 46.597 193.854 47.5681C194.619 48.9008 194.468 50.6574 193.64 51.9297C193.284 52.477 192.832 52.9381 192.325 53.3414C192.899 54.587 192.624 56.0734 191.698 57.0809C191.473 57.4282 191.196 57.7417 190.885 58.0255C191.229 59.3133 190.617 60.6421 189.397 61.3302L189.293 61.5798C189.275 61.6213 189.258 61.6626 189.239 61.7035C189.226 61.7565 189.209 61.8078 189.193 61.8595C189.164 62.3165 189.006 62.7649 188.694 63.1874C188.054 64.0534 187.261 64.618 186.84 65.6289L186.798 65.7351C186.617 66.2135 186.033 66.551 185.536 66.4033C188.298 71.8252 189.746 77.8581 190.741 83.7705C191.236 86.7201 191.619 89.6798 191.929 92.651L192.234 95.6097C192.501 98.2396 192.739 100.878 192.741 103.517C192.745 109.486 190.958 115.227 187.124 119.977C183.498 124.467 178.366 127.721 172.569 129.003C166.584 130.324 159.563 129.804 154.196 126.779C152.613 125.889 153.999 123.75 155.61 124.465C158.658 125.821 161.755 126.828 165.134 127.053C168.428 127.274 171.729 126.881 174.853 125.851C180.02 124.145 184.417 120.573 187.243 116.125C188.635 113.932 189.643 111.553 190.18 109.039C190.848 105.905 190.748 102.666 190.502 99.4929L190.485 99.2766C190 93.1619 189.36 87.0095 188.326 80.9557C187.412 75.6024 186.007 70.3575 184.183 65.2287C183.468 64.6275 182.669 64.13 181.814 63.7521C175.55 63.5021 169.275 63.5751 163.019 63.9882C157.684 64.3428 152.374 64.9427 147.105 65.817L146.541 65.9117C145.374 66.1103 144.079 66.2239 142.98 66.6727C142.037 67.0589 141.655 67.801 141.417 68.7132C140.819 71.0209 140.728 73.5464 140.627 75.9127C140.528 78.2258 140.752 80.5582 140.558 82.8637C140.393 84.7927 139.876 86.7672 138.381 88.1625C137.599 88.8931 136.636 89.2925 135.733 89.8472C135.149 90.2051 134.901 90.5741 134.976 91.2366C135.139 92.6867 136.361 94.5135 134.988 95.7553C134.747 95.973 134.329 96.0014 134.091 95.7553C133.525 95.1668 132.742 94.718 132.071 94.2428C131.79 94.0461 132.023 93.6637 132.342 93.7998C132.762 93.9799 133.19 94.1919 133.628 94.3774C132.661 93.6164 131.287 93.2433 130.142 93.0218C129.566 92.912 128.959 92.8798 128.359 92.9311C127.916 93.1335 127.462 93.3211 127.009 93.5045C126.432 93.7356 125.85 93.9456 125.264 94.1445C123.23 95.7288 122.259 98.3055 122.683 100.825C122.915 102.216 123.586 103.729 124.852 104.541C126.351 105.503 128.359 105.09 129.979 105.804C131.497 106.472 132.419 107.822 133.111 109.219L133.399 109.8C134.04 111.088 134.7 112.342 135.576 113.514C136.591 114.871 137.832 116.09 139.187 117.137C139.844 117.644 140.545 118.1 141.269 118.515L141.467 118.627C142.199 119.038 142.724 119.43 142.774 120.299C142.79 120.602 142.59 120.878 142.332 121.035C141.223 121.707 140.12 120.867 139.197 120.28C138.201 119.647 137.248 118.936 136.367 118.16C134.691 116.687 133.241 114.938 132.126 113.039C131.277 111.593 130.793 109.558 129.451 108.437C128.631 107.753 127.472 107.748 126.448 107.623C125.495 107.506 124.594 107.316 123.747 106.868C120.299 105.037 119.324 100.606 120.142 97.181C120.281 96.6034 120.475 96.0412 120.714 95.4998C119.431 95.7042 117.989 94.4361 118.51 93.1562C118.55 93.0596 118.595 92.969 118.639 92.876C117.793 92.3441 117.126 91.5378 116.809 90.4832C116.646 89.938 116.623 89.3871 116.708 88.8552C116.298 88.5923 115.959 88.2305 115.741 87.7856C115.06 87.4846 114.456 87.0343 114.095 86.3906C113.596 85.5026 113.66 84.6848 114.04 83.9484C113.987 83.8559 113.935 83.7612 113.886 83.6645C112.489 82.8185 111.515 81.3606 111.626 79.744C111.661 79.2083 111.8 78.7255 112.014 78.2903C111.996 78.2354 111.978 78.1784 111.962 78.1235C110.794 77.5556 109.827 76.6226 109.483 75.3769C109.138 74.1235 109.544 72.8741 110.356 71.9125C109.168 71.0816 108.453 69.9212 108.887 68.1661C109.063 67.4527 109.417 66.8032 109.897 66.2561C109.895 66.2392 109.891 66.2222 109.887 66.205L109.776 66.1225C108.309 65.0161 107.465 63.606 108.366 61.8718C108.77 61.092 109.346 60.5485 110.023 60.1908L110.057 60.0885V60.0885C109.572 59.0947 109.408 57.991 109.742 56.8306C110.016 55.8748 110.663 55.1136 111.491 54.6084C111.436 54.1804 111.444 53.7243 111.533 53.23C111.681 52.3954 112.115 51.6666 112.749 51.1498C112.772 51.0398 112.802 50.9321 112.836 50.824C113.05 50.1635 113.45 49.446 113.913 48.9139C114.296 48.4728 114.723 48.3119 115.246 48.2949C115.214 47.8881 115.236 47.4752 115.323 47.0568C115.591 45.766 116.45 44.5523 117.724 44.0015C118.247 43.7762 118.797 43.7101 119.328 43.7648C119.78 42.8562 120.661 42.1976 121.744 42.0556C122.166 41.9988 122.558 42.0024 122.919 42.0537C123.123 41.9627 123.335 41.8814 123.557 41.8074C123.703 41.7582 123.852 41.7128 124 41.6675C124.501 41.0731 125.161 40.5978 125.931 40.3121C126.82 39.9808 127.726 40.0147 128.528 40.293L128.783 40.2419V40.2419C129.183 39.5793 129.821 39.0663 130.801 38.8335C131.914 38.5703 133.057 38.9376 133.933 39.606C133.937 39.606 133.941 39.606 133.946 39.6039C134.404 38.6252 135.186 37.9437 136.499 37.9911C137.317 38.0213 138.056 38.4096 138.627 38.9624C138.943 38.9243 139.26 38.8903 139.579 38.8564C139.916 38.4795 140.29 38.1275 140.704 37.8114C141.381 37.2925 142.263 37.3344 142.762 38.0649C142.871 38.2239 142.972 38.3848 143.073 38.5457L143.53 38.5154V38.5154C144.069 37.8207 144.804 37.3512 145.81 37.3135C146.733 37.2774 147.39 37.7092 147.891 38.3129C148.299 38.3034 148.709 38.296 149.119 38.2902C149.597 37.762 150.159 37.2963 150.801 36.9101C151.292 36.6148 152.017 36.7153 152.415 37.1091C152.684 37.3768 152.934 37.6562 153.167 37.9454C153.767 37.3026 154.577 36.8791 155.443 36.7172ZM126.294 96.8307C127.219 96.3271 128.462 96.8723 129.358 97.3002C130.449 97.8207 131.532 98.6064 132.2 99.5907C133.109 100.931 130.972 102.014 130.015 100.812C129.427 100.072 128.957 99.3257 128.244 98.6783C127.593 98.0839 126.648 97.6863 126.274 96.9026C126.26 96.8761 126.264 96.8458 126.294 96.8307ZM126.943 64.2986L126.961 64.2513C127.224 63.5636 126.076 63.2671 125.815 63.9492C125.42 64.983 125.875 66.1069 126.944 66.5533C127.24 66.6771 127.578 66.6341 127.756 66.3496C127.906 66.1101 127.837 65.6952 127.543 65.5727C126.942 65.3214 126.741 64.878 126.943 64.2986V64.2986ZM117.054 62.3755C117.629 61.8909 116.786 61.09 116.214 61.5725C115.68 62.0227 115.285 62.6341 115.387 63.3374C115.492 64.0541 116.058 64.5601 116.677 64.9177C117.332 65.2969 117.93 64.3151 117.276 63.9369L117.203 63.8939C116.928 63.7309 116.607 63.5068 116.56 63.1861C116.511 62.8454 116.813 62.5794 117.054 62.3755ZM120.316 53.8243L120.356 53.7957C120.974 53.3747 120.381 52.3892 119.756 52.8149C119.184 53.2054 118.725 53.7128 118.677 54.4124C118.63 55.0924 118.992 55.6819 119.465 56.1603C119.992 56.6924 120.831 55.8883 120.305 55.3573C119.793 54.8397 119.693 54.275 120.316 53.8243V53.8243Z" fill="black"/>
<path fill-rule="evenodd" clip-rule="evenodd" d="M182.843 119.209C182.15 118.993 181.47 118.742 180.786 118.499C177.291 116.825 173.07 116.521 169.405 117.931C167.606 118.623 165.928 119.867 164.123 120.682C163.694 120.834 163.262 120.973 162.825 121.089C162.557 121 162.289 120.905 162.023 120.811C160.108 120.122 158.307 119.273 156.559 118.339C156.372 118.089 156.179 117.846 155.971 117.612C157.236 117.44 158.475 117.156 159.596 116.862C163.037 115.963 166.28 114.497 169.71 113.559C172.903 112.682 176.369 112.203 179.576 113.292C181.098 113.808 182.438 114.713 183.919 115.323C184.685 115.637 185.604 115.946 186.499 115.991C185.921 117.311 185.191 118.543 184.193 119.569C183.736 119.476 183.284 119.346 182.843 119.209ZM190.29 108.875C189.983 109.118 188.719 109.901 188.308 110.369C188.203 110.33 188.097 110.291 187.992 110.25C187.812 110.039 187.546 109.946 187.275 109.952C185.384 109.113 183.7 107.927 182.198 106.441C181.13 105.386 180.037 104.283 178.61 103.671C176.928 102.948 175.275 103.281 173.509 103.391C171.629 103.51 169.773 103.001 167.896 103.245C166.522 103.425 165.236 103.98 164.125 104.762C161.856 106.357 160.292 108.599 158.375 110.532C156.2 112.724 153.524 114.125 150.549 114.84C150.514 114.817 150.476 114.795 150.438 114.774C148.245 112.881 146.264 110.744 144.512 108.466C142.801 106.242 138.29 96.2296 137.2 95.3513C136.748 94.9859 136.251 94.8288 135.777 94.842C134.918 94.861 134.124 95.4308 133.768 96.3281C133.165 97.8539 133.467 99.8264 133.514 101.422C133.574 103.376 133.709 105.328 133.923 107.272C134.136 109.193 134.417 111.109 134.769 113.011C134.945 113.973 135.142 114.933 135.358 115.889C135.426 116.19 135.511 116.459 135.614 116.709C135.719 117.18 135.833 117.649 135.954 118.115C136.744 121.165 137.99 124.218 140.37 126.469C142.847 128.815 146.213 130.373 149.339 131.766C152.316 133.093 155.436 134.272 158.637 135.196C161.418 136.398 164.395 137.348 167.384 137.848C170.675 138.399 174.134 138.433 177.311 137.343C178.873 136.807 180.35 136.059 181.69 135.128C183.589 134.187 185.298 132.894 186.697 131.183C189.203 128.116 190.4 124.394 190.923 120.556C191.057 119.574 191.561 115.809 191.6 115.223C191.728 113.33 191.856 111.437 191.984 109.544C192.044 108.651 190.895 108.396 190.29 108.875Z" fill="black"/>
<path fill-rule="evenodd" clip-rule="evenodd" d="M174.688 114.748C173.226 115.152 171.656 115.188 170.166 114.771C168.814 114.393 167.426 113.56 166.431 112.458C165.548 111.48 164.975 110.29 164.998 109.02C165 108.875 165.055 108.754 165.138 108.66C165.228 108.559 165.354 108.49 165.489 108.46C165.627 108.429 165.774 108.44 165.898 108.494C166.011 108.543 166.108 108.626 166.168 108.747C166.321 108.939 166.474 109.127 166.626 109.311C167.856 110.759 169.046 111.841 170.895 112.229C171.898 112.439 172.9 112.346 173.819 112.025C174.803 111.681 175.692 111.076 176.389 110.302C176.704 109.952 177.076 109.81 177.439 109.807C177.851 109.804 178.259 109.987 178.565 110.279C178.867 110.566 179.069 110.956 179.087 111.364C179.103 111.722 178.981 112.095 178.655 112.429C177.582 113.528 176.192 114.333 174.688 114.748ZM174.643 96.6146C176.141 97.4835 178.425 99.5097 176.813 101.664C174.915 103.563 172.182 101.385 170.836 100.401C169.587 99.6372 168.184 101.6 169.343 102.492C179.073 109.363 183.021 96.8418 175.401 95.593C174.562 95.4554 174.25 96.3458 174.643 96.6146ZM160.623 92.7912C160.141 92.4974 159.574 92.3966 158.946 92.6691C158.455 92.8819 157.595 93.5915 156.996 94.5244C156.586 95.1626 156.295 95.9112 156.356 96.6911C156.37 96.8722 156.3 97.0057 156.189 97.1044C156.102 97.1824 155.975 97.2397 155.827 97.2576C155.701 97.2729 155.56 97.2591 155.446 97.225C155.228 97.1601 155.112 97.0253 155.069 96.9152C154.649 95.8528 154.83 94.6672 155.3 93.5976C155.935 92.1542 157.087 90.9451 157.841 90.5553C159.133 89.888 160.657 89.8572 161.95 90.5371C163.051 91.1157 163.74 92.0498 164.424 93.002C164.57 93.2044 164.714 93.4053 164.864 93.6027C165.163 93.9983 165.193 94.3906 165.077 94.727C164.948 95.0996 164.621 95.4141 164.212 95.5787C163.833 95.7308 163.394 95.7523 163.006 95.596C162.678 95.4639 162.376 95.2065 162.186 94.7698C161.865 94.0342 161.33 93.2228 160.623 92.7912V92.7912ZM185.087 94.4276C184.758 94.5916 184.499 94.641 184.134 94.5364C183.931 94.4785 183.731 94.3673 183.575 94.218C183.419 94.07 183.307 93.8859 183.264 93.6817C183.157 93.1777 182.868 92.7059 182.456 92.3984C182.104 92.1355 181.659 91.9962 181.166 92.0748C180.634 92.1595 180.127 92.4849 179.778 92.8686C179.661 92.997 179.57 93.1428 179.478 93.2876C179.306 93.5584 179.139 93.8102 178.902 94.0091C178.812 94.0848 178.676 94.1372 178.545 94.1372C178.492 94.1372 178.438 94.1289 178.386 94.1136C177.856 93.6067 177.755 93.2221 177.772 92.8407C177.79 92.4408 177.955 92.0358 178.222 91.658C178.849 90.7717 180.039 90.045 180.842 89.8804C181.941 89.655 183.033 89.9255 183.909 90.5113C184.81 91.1141 185.477 92.0499 185.686 93.1045C185.736 93.3585 185.714 93.6327 185.613 93.8704C185.514 94.1027 185.341 94.3016 185.087 94.4276ZM163.048 83.3417C162.388 83.9549 161.607 84.0499 160.817 84.1344C160.378 84.1818 160.027 84.22 159.682 84.2942C158.734 84.4983 157.797 84.8057 156.942 85.2484C156.049 85.7112 155.075 86.2694 154.374 86.9844C154.207 87.1545 154.05 87.3331 153.893 87.512C153.75 87.6752 153.612 87.8322 153.466 87.9837C153.299 88.1576 153.14 88.34 152.982 88.5218C152.884 88.6753 152.865 88.713 152.845 88.7523C152.816 88.8113 152.781 88.8774 152.742 88.9483C152.688 89.0453 152.625 89.1516 152.559 89.2479C152.449 89.424 152.39 89.4725 152.339 89.4942C152.255 89.5301 152.175 89.5478 152.097 89.5382C152.024 89.5292 151.955 89.4958 151.887 89.4411C151.548 89.1681 151.448 88.72 151.459 88.2444C151.474 87.5226 151.753 86.7235 152.011 86.2322C152.609 85.0908 153.439 83.9042 154.436 83.0523C155.575 82.0798 156.82 81.3436 158.251 80.8363C159.14 80.521 160.169 80.2315 161.138 80.2681C161.835 80.2944 162.501 80.492 163.05 80.9857C163.388 81.2887 163.55 81.7197 163.55 82.1504C163.55 82.5897 163.381 83.0316 163.048 83.3417ZM186.43 88.9574C186.388 89.023 186.33 89.0682 186.265 89.0953C186.197 89.1238 186.122 89.132 186.049 89.1203C185.977 89.1087 185.908 89.0775 185.853 89.0297C185.801 88.9839 185.761 88.9232 185.744 88.8489C185.306 87.0135 184.455 85.6479 182.639 84.7673C181.746 84.3341 180.719 84.0589 179.746 83.8394C179.464 83.7757 179.165 83.7343 178.865 83.6925C177.922 83.5612 176.973 83.4109 176.359 82.6844C175.989 82.2468 175.833 81.6871 175.921 81.1753C176.004 80.6934 176.299 80.2515 176.836 79.9867C178.172 79.3277 179.833 79.9743 181.182 80.5251C181.282 80.566 181.38 80.6061 181.476 80.6448C182.796 81.1761 183.999 81.8773 184.989 82.8802C185.774 83.6759 186.501 84.852 186.794 86.062C187.038 87.0687 186.98 88.0963 186.43 88.9574Z" fill="black"/>
<path fill-rule="evenodd" clip-rule="evenodd" d="M192.405 97.7676C189.996 100.142 185.973 100.824 182.767 99.5503C174.535 96.2698 178.564 86.0379 184.913 83.2902C185.706 83.1016 186.765 82.6543 187.731 82.5528C187.819 82.512 188.009 82.6303 188.239 82.5184C195.239 83.2639 196.834 93.6286 192.405 97.7676M165.854 98.3755C163.151 101.794 158.127 102.849 154.022 101.26C145.911 98.2136 148.788 89.1404 154.337 85.5834C166.058 81.3826 170.898 92.0714 165.854 98.3755M148.273 90.7999C148.266 90.7965 148.258 90.7948 148.25 90.7914C148.293 90.7734 148.336 90.7554 148.379 90.737C148.365 90.7717 148.35 90.8059 148.336 90.8406C148.315 90.8268 148.297 90.8107 148.273 90.7999M197.985 87.1041C197.323 87.1054 196.367 87.2092 195.819 87.647C194.469 83.3019 189.483 79.2805 185.146 82.2128C181.732 83.2603 179.198 85.5832 177.758 88.6715C175.161 87.1984 171.078 87.8274 168.826 89.7756C167.352 85.1279 163.722 83.5005 159.403 83.2603C154.688 82.5237 149.988 86.8911 148.522 90.3948C147.303 90.2624 145.481 89.8924 144.334 90.61C136.89 88.748 123.875 87.7214 122.361 88.756C121.283 89.1507 120.691 91.5787 122.198 91.7097C123.51 91.5319 122.044 89.9306 123.368 89.7559C130.418 89.339 137.262 90.6933 144.238 91.2616C144.861 92.0606 146.873 92.3279 147.947 92.0069C146.256 97.9503 149.906 101.994 155.375 103.205C163.843 105.06 171.21 97.835 168.996 90.3196C171.561 89.1024 174.512 89.1546 177.307 89.7958C172.637 106.188 200.315 105.452 195.992 88.2087C198.869 89.5736 199.494 87.3795 197.985 87.1041" fill="black"/>
</g>
<defs>
<filter id="filter0_d_16_20208" x="0.984734" y="0" width="334.489" height="631" filterUnits="userSpaceOnUse" color-interpolation-filters="sRGB">
<feFlood flood-opacity="0" result="BackgroundImageFix"/>
<feColorMatrix in="SourceAlpha" type="matrix" values="0 0 0 0 0 0 0 0 0 0 0 0 0 0 0 0 0 0 127 0" result="hardAlpha"/>
<feOffset dy="4"/>
<feGaussianBlur stdDeviation="2"/>
<feComposite in2="hardAlpha" operator="out"/>
<feColorMatrix type="matrix" values="0 0 0 0 0 0 0 0 0 0 0 0 0 0 0 0 0 0 0.25 0"/>
<feBlend mode="normal" in2="BackgroundImageFix" result="effect1_dropShadow_16_20208"/>
<feBlend mode="normal" in="SourceGraphic" in2="effect1_dropShadow_16_20208" result="shape"/>
</filter>
</defs>
</svg>
