<svg xmlns="http://www.w3.org/2000/svg" version="1.1" xmlns:xlink="http://www.w3.org/1999/xlink" xmlns:svgjs="http://svgjs.com/svgjs" width="1440" height="560" preserveAspectRatio="none" viewBox="0 0 1440 560"><g mask="url(&quot;#SvgjsMask1099&quot;)" fill="none"><rect width="1440" height="560" x="0" y="0" fill="rgba(231, 225, 184, 1)"></rect><path d="M 0,113 C 36,144.8 108,292.4 180,272 C 252,251.6 288,36.8 360,11 C 432,-14.8 468,144 540,143 C 612,142 648,-21.4 720,6 C 792,33.4 828,258.8 900,280 C 972,301.2 1008,114.8 1080,112 C 1152,109.2 1188,272.4 1260,266 C 1332,259.6 1404,117.2 1440,80L1440 560L0 560z" fill="rgba(238, 233, 203, 1)"></path><path d="M 0,560 C 41.2,511.8 123.6,346.8 206,319 C 288.4,291.2 329.6,406.4 412,421 C 494.4,435.6 535.6,367.4 618,392 C 700.4,416.6 741.6,556.2 824,544 C 906.4,531.8 947.6,340 1030,331 C 1112.4,322 1154,481.8 1236,499 C 1318,516.2 1399.2,433.4 1440,417L1440 560L0 560z" fill="rgba(244, 241, 222, 1)"></path></g><defs><mask id="SvgjsMask1099"><rect width="1440" height="560" fill="#ffffff"></rect></mask></defs></svg>